<svg xmlns="http://www.w3.org/2000/svg" xmlns:xlink="http://www.w3.org/1999/xlink" width="500" zoomAndPan="magnify" viewBox="0 0 375 374.999991" height="500" preserveAspectRatio="xMidYMid meet" version="1.0"><defs><clipPath id="563be5a2cb"><path d="M 112.5 122.863281 L 232 122.863281 L 232 225 L 112.5 225 Z M 112.5 122.863281 " clip-rule="nonzero"/></clipPath><clipPath id="84a6fc4279"><path d="M 141 174 L 262.5 174 L 262.5 251.863281 L 141 251.863281 Z M 141 174 " clip-rule="nonzero"/></clipPath></defs><g clip-path="url(#563be5a2cb)"><path fill="#e44032" d="M 195.042969 122.863281 L 116.382812 170.617188 L 116.566406 170.890625 C 120.046875 176.632812 118.382812 184.007812 112.808594 187.394531 L 112.535156 187.546875 L 132.164062 219.796875 L 132.4375 219.644531 C 138.007812 216.257812 145.339844 218.191406 148.851562 223.9375 L 149.035156 224.207031 L 227.691406 176.484375 L 227.511719 176.210938 C 224.027344 170.46875 225.691406 163.09375 231.265625 159.707031 L 231.539062 159.558594 L 211.882812 127.277344 L 211.609375 127.425781 C 206.035156 130.8125 198.707031 128.878906 195.191406 123.136719 Z M 195.042969 122.863281 " fill-opacity="1" fill-rule="nonzero"/></g><path fill="#ffffff" d="M 150.277344 219.765625 L 150.0625 219.402344 C 148.125 216.226562 144.734375 214.324219 141.007812 214.324219 C 139.039062 214.324219 137.132812 214.867188 135.464844 215.894531 L 135.101562 216.136719 L 135.011719 216.015625 L 117.566406 187.394531 L 117.929688 187.152344 C 120.351562 185.671875 122.078125 183.34375 122.773438 180.59375 C 123.441406 177.84375 123.015625 175 121.5625 172.582031 L 121.351562 172.222656 L 193.800781 128.273438 L 194.011719 128.636719 C 195.949219 131.808594 199.34375 133.714844 203.066406 133.714844 C 205.035156 133.714844 206.945312 133.171875 208.609375 132.144531 L 208.972656 131.902344 L 209.066406 132.023438 L 226.480469 160.585938 L 226.117188 160.824219 C 223.695312 162.308594 221.96875 164.632812 221.269531 167.386719 C 220.605469 170.136719 221.027344 172.976562 222.484375 175.394531 L 222.695312 175.757812 L 222.574219 175.847656 Z M 140.976562 214.023438 C 144.824219 214.023438 148.308594 215.988281 150.304688 219.25 L 150.367188 219.371094 L 222.332031 175.695312 L 222.269531 175.574219 C 220.757812 173.097656 220.300781 170.164062 221 167.324219 C 221.695312 164.484375 223.453125 162.09375 225.964844 160.585938 L 226.085938 160.523438 L 208.914062 132.324219 L 208.792969 132.382812 C 207.066406 133.441406 205.097656 133.988281 203.066406 133.988281 C 199.222656 133.988281 195.738281 132.023438 193.738281 128.757812 L 193.679688 128.636719 L 121.746094 172.34375 L 121.804688 172.460938 C 123.320312 174.941406 123.773438 177.871094 123.078125 180.714844 C 122.378906 183.554688 120.625 185.941406 118.109375 187.453125 L 117.988281 187.515625 L 135.164062 215.714844 L 135.285156 215.652344 C 137.007812 214.566406 138.976562 214.023438 140.976562 214.023438 Z M 140.976562 214.023438 " fill-opacity="1" fill-rule="nonzero"/><path fill="#ffffff" d="M 139.554688 192.894531 L 139.523438 192.863281 C 137.617188 189.75 138.433594 185.761719 141.796875 183.707031 C 143.886719 182.4375 145.519531 182.375 147.15625 182.769531 L 146.703125 185.488281 C 145.371094 185.246094 144.21875 185.277344 143.128906 185.972656 C 141.28125 187.089844 140.886719 189.449219 142.007812 191.324219 L 142.039062 191.351562 C 143.1875 193.226562 145.460938 194.011719 147.339844 192.863281 C 148.609375 192.109375 149.0625 191.140625 149.457031 189.8125 L 151.941406 190.417969 C 151.546875 192.320312 150.761719 193.832031 148.609375 195.132812 C 145.398438 197.066406 141.460938 196.039062 139.554688 192.894531 Z M 139.554688 192.894531 " fill-opacity="1" fill-rule="nonzero"/><path fill="#ffffff" d="M 148.398438 179.957031 L 150.820312 178.476562 L 157.515625 189.480469 L 155.089844 190.960938 Z M 148.398438 179.957031 " fill-opacity="1" fill-rule="nonzero"/><path fill="#ffffff" d="M 153.578125 176.816406 L 155.820312 175.453125 L 165.085938 179.082031 L 160.96875 172.3125 L 163.359375 170.859375 L 170.054688 181.863281 L 167.996094 183.101562 L 158.394531 179.355469 L 162.664062 186.335938 L 160.269531 187.785156 Z M 153.578125 176.816406 " fill-opacity="1" fill-rule="nonzero"/><path fill="#ffffff" d="M 165.996094 169.257812 L 174.292969 164.210938 L 175.597656 166.355469 L 169.691406 169.925781 L 171.054688 172.160156 L 176.234375 169.015625 L 177.535156 171.164062 L 172.355469 174.304688 L 173.75 176.605469 L 179.714844 172.976562 L 181.019531 175.121094 L 172.628906 180.199219 Z M 165.996094 169.257812 " fill-opacity="1" fill-rule="nonzero"/><path fill="#ffffff" d="M 176.535156 162.882812 L 179.140625 161.308594 L 184.863281 164.210938 L 184.925781 157.804688 L 187.53125 156.230469 L 194.222656 167.234375 L 191.832031 168.683594 L 187.46875 161.519531 L 187.226562 168.109375 L 187.167969 168.140625 L 181.261719 165.359375 L 185.59375 172.492188 L 183.230469 173.945312 Z M 176.535156 162.882812 " fill-opacity="1" fill-rule="nonzero"/><path fill="#ffffff" d="M 193.921875 152.210938 L 196.164062 150.851562 L 207.609375 159.042969 L 205.066406 160.585938 L 202.554688 158.742188 L 197.890625 161.550781 L 198.375 164.632812 L 195.890625 166.144531 Z M 200.433594 157.140625 L 196.796875 154.449219 L 197.496094 158.890625 Z M 200.433594 157.140625 " fill-opacity="1" fill-rule="nonzero"/><path fill="#ffffff" d="M 126.136719 187.210938 L 125.652344 186.757812 L 126.015625 186.394531 L 126.742188 187.03125 L 126.953125 187.394531 L 123.957031 189.207031 L 123.652344 188.695312 Z M 126.136719 187.210938 " fill-opacity="1" fill-rule="nonzero"/><path fill="#ffffff" d="M 125.289062 190.445312 L 126.773438 190.929688 C 127.378906 191.140625 127.652344 191.171875 127.921875 190.992188 C 128.226562 190.808594 128.257812 190.507812 128.105469 190.234375 C 127.953125 189.964844 127.679688 189.871094 127.226562 189.8125 L 127.289062 189.269531 C 127.863281 189.296875 128.257812 189.449219 128.589844 189.992188 C 128.953125 190.566406 128.832031 191.203125 128.285156 191.503906 C 127.832031 191.777344 127.410156 191.6875 126.652344 191.445312 L 125.773438 191.140625 L 126.621094 192.5625 L 126.167969 192.835938 L 124.863281 190.6875 Z M 125.289062 190.445312 " fill-opacity="1" fill-rule="nonzero"/><path fill="#ffffff" d="M 127.410156 193.832031 L 127.984375 193.984375 C 127.863281 194.34375 127.863281 194.679688 128.074219 195.011719 C 128.257812 195.3125 128.558594 195.402344 128.832031 195.253906 C 129.136719 195.070312 129.136719 194.707031 128.863281 194.285156 L 128.742188 194.042969 L 129.015625 193.769531 L 130.347656 194.042969 L 129.558594 192.742188 L 130.011719 192.472656 L 131.226562 194.4375 L 130.832031 194.679688 L 129.46875 194.375 C 129.679688 194.859375 129.710938 195.433594 129.164062 195.765625 C 128.621094 196.097656 127.953125 195.917969 127.589844 195.28125 C 127.289062 194.769531 127.257812 194.253906 127.410156 193.832031 Z M 127.410156 193.832031 " fill-opacity="1" fill-rule="nonzero"/><path fill="#ffffff" d="M 130.679688 198.757812 L 129.769531 197.246094 L 130.074219 196.914062 L 133.042969 197.367188 L 133.316406 197.820312 L 131.40625 198.96875 L 131.679688 199.394531 L 131.253906 199.664062 L 130.984375 199.242188 L 130.316406 199.636719 L 130.011719 199.121094 Z M 131.132812 198.488281 L 132.316406 197.761719 L 130.527344 197.488281 Z M 131.132812 198.488281 " fill-opacity="1" fill-rule="nonzero"/><path fill="#ffffff" d="M 131.769531 201.117188 L 132.34375 201.207031 C 132.253906 201.570312 132.285156 201.902344 132.464844 202.175781 C 132.679688 202.535156 133.042969 202.628906 133.34375 202.445312 C 133.648438 202.265625 133.679688 201.902344 133.464844 201.539062 C 133.34375 201.328125 133.164062 201.175781 133.011719 201.085938 L 133.042969 200.632812 L 134.554688 199.816406 L 135.648438 201.597656 L 135.191406 201.871094 L 134.375 200.542969 L 133.648438 200.90625 C 133.800781 201.023438 133.890625 201.117188 134.011719 201.328125 C 134.375 201.902344 134.34375 202.535156 133.707031 202.929688 C 133.101562 203.292969 132.4375 203.109375 132.042969 202.445312 C 131.679688 202.023438 131.648438 201.539062 131.769531 201.117188 Z M 131.769531 201.117188 " fill-opacity="1" fill-rule="nonzero"/><path fill="#ffffff" d="M 133.980469 205.074219 C 134.070312 204.710938 134.3125 204.378906 134.890625 204.015625 C 135.796875 203.472656 136.765625 203.472656 137.28125 204.320312 C 137.523438 204.710938 137.554688 205.046875 137.496094 205.4375 L 136.917969 205.40625 C 136.949219 205.105469 136.949219 204.863281 136.796875 204.59375 C 136.523438 204.136719 135.980469 204.136719 135.40625 204.441406 C 135.648438 204.5 135.917969 204.621094 136.132812 204.953125 C 136.496094 205.527344 136.433594 206.195312 135.828125 206.554688 C 135.222656 206.917969 134.527344 206.675781 134.132812 206.074219 C 133.949219 205.742188 133.921875 205.40625 133.980469 205.074219 Z M 135.527344 206.074219 C 135.828125 205.890625 135.917969 205.527344 135.675781 205.136719 C 135.464844 204.773438 135.070312 204.683594 134.796875 204.863281 C 134.496094 205.046875 134.40625 205.4375 134.648438 205.800781 C 134.859375 206.195312 135.222656 206.253906 135.527344 206.074219 Z M 135.527344 206.074219 " fill-opacity="1" fill-rule="nonzero"/><path fill="#ffffff" d="M 139.128906 208.460938 L 138.222656 206.980469 L 138.675781 206.707031 L 139.949219 208.792969 L 139.554688 209.035156 L 136.160156 209.246094 L 135.796875 208.671875 Z M 139.128906 208.460938 " fill-opacity="1" fill-rule="nonzero"/><path fill="#ffffff" d="M 219 161.21875 L 219.484375 161.671875 L 219.121094 162.035156 L 218.394531 161.402344 L 218.183594 161.039062 L 221.179688 159.222656 L 221.484375 159.738281 Z M 219 161.21875 " fill-opacity="1" fill-rule="nonzero"/><path fill="#ffffff" d="M 219.847656 157.984375 L 218.363281 157.5 C 217.757812 157.289062 217.484375 157.257812 217.210938 157.441406 C 216.910156 157.621094 216.878906 157.925781 217.03125 158.195312 C 217.183594 158.46875 217.453125 158.558594 217.910156 158.621094 L 217.847656 159.164062 C 217.273438 159.132812 216.878906 158.980469 216.546875 158.4375 C 216.183594 157.863281 216.304688 157.230469 216.847656 156.925781 C 217.304688 156.65625 217.726562 156.746094 218.484375 156.988281 L 219.363281 157.289062 L 218.515625 155.871094 L 218.96875 155.597656 L 220.273438 157.742188 Z M 219.847656 157.984375 " fill-opacity="1" fill-rule="nonzero"/><path fill="#ffffff" d="M 217.695312 154.601562 L 217.121094 154.449219 C 217.242188 154.085938 217.242188 153.753906 217.03125 153.421875 C 216.847656 153.117188 216.546875 153.027344 216.273438 153.179688 C 215.972656 153.359375 215.972656 153.722656 216.242188 154.144531 L 216.394531 154.386719 L 216.121094 154.660156 L 214.789062 154.386719 L 215.578125 155.6875 L 215.121094 155.960938 L 213.910156 153.996094 L 214.304688 153.753906 L 215.667969 154.054688 C 215.457031 153.570312 215.425781 152.996094 215.972656 152.664062 C 216.515625 152.332031 217.183594 152.515625 217.546875 153.148438 C 217.847656 153.664062 217.847656 154.175781 217.695312 154.601562 Z M 217.695312 154.601562 " fill-opacity="1" fill-rule="nonzero"/><path fill="#ffffff" d="M 214.425781 149.671875 L 215.335938 151.183594 L 215.03125 151.515625 L 212.0625 151.0625 L 211.792969 150.609375 L 213.699219 149.460938 L 213.425781 149.039062 L 213.851562 148.765625 L 214.125 149.191406 L 214.789062 148.796875 L 215.09375 149.308594 Z M 214.003906 149.945312 L 212.820312 150.671875 L 214.609375 150.941406 Z M 214.003906 149.945312 " fill-opacity="1" fill-rule="nonzero"/><path fill="#ffffff" d="M 213.367188 147.316406 L 212.789062 147.226562 C 212.882812 146.863281 212.851562 146.53125 212.667969 146.257812 C 212.457031 145.894531 212.09375 145.804688 211.792969 145.984375 C 211.488281 146.167969 211.457031 146.53125 211.667969 146.890625 C 211.792969 147.105469 211.972656 147.253906 212.125 147.347656 L 212.09375 147.800781 L 210.578125 148.585938 L 209.488281 146.800781 L 209.945312 146.53125 L 210.761719 147.859375 L 211.488281 147.496094 C 211.335938 147.375 211.246094 147.285156 211.125 147.074219 C 210.761719 146.5 210.792969 145.863281 211.425781 145.472656 C 212.035156 145.109375 212.699219 145.289062 213.09375 145.957031 C 213.425781 146.410156 213.457031 146.890625 213.367188 147.316406 Z M 213.367188 147.316406 " fill-opacity="1" fill-rule="nonzero"/><path fill="#ffffff" d="M 211.125 143.355469 C 211.035156 143.71875 210.792969 144.050781 210.214844 144.414062 C 209.308594 144.957031 208.339844 144.957031 207.824219 144.113281 C 207.582031 143.71875 207.550781 143.386719 207.609375 142.992188 L 208.1875 143.023438 C 208.15625 143.324219 208.15625 143.566406 208.308594 143.839844 C 208.582031 144.292969 209.125 144.292969 209.699219 143.992188 C 209.457031 143.929688 209.1875 143.808594 208.972656 143.476562 C 208.609375 142.902344 208.671875 142.238281 209.277344 141.875 C 209.882812 141.511719 210.578125 141.753906 210.972656 142.359375 C 211.15625 142.691406 211.214844 143.023438 211.125 143.355469 Z M 209.609375 142.359375 C 209.308594 142.539062 209.214844 142.902344 209.457031 143.296875 C 209.671875 143.660156 210.066406 143.75 210.335938 143.566406 C 210.640625 143.386719 210.730469 142.992188 210.488281 142.628906 C 210.277344 142.238281 209.914062 142.148438 209.609375 142.359375 Z M 209.609375 142.359375 " fill-opacity="1" fill-rule="nonzero"/><path fill="#ffffff" d="M 205.976562 139.972656 L 206.882812 141.453125 L 206.429688 141.722656 L 205.15625 139.636719 L 205.550781 139.398438 L 208.945312 139.183594 L 209.308594 139.757812 Z M 205.976562 139.972656 " fill-opacity="1" fill-rule="nonzero"/><path fill="#ffffff" d="M 136.28125 172.3125 L 138.675781 173.851562 L 141.3125 172.734375 L 140.613281 175.484375 L 142.492188 177.660156 L 139.613281 177.8125 L 138.160156 180.261719 L 137.101562 177.632812 L 134.3125 176.964844 L 136.523438 175.152344 Z M 136.28125 172.3125 " fill-opacity="1" fill-rule="nonzero"/><path fill="#ffffff" d="M 146.550781 166.085938 L 148.972656 167.597656 L 151.609375 166.476562 L 150.910156 169.257812 L 152.789062 171.40625 L 149.914062 171.585938 L 148.457031 174.035156 L 147.398438 171.375 L 144.613281 170.738281 L 146.824219 168.925781 Z M 146.550781 166.085938 " fill-opacity="1" fill-rule="nonzero"/><path fill="#ffffff" d="M 156.363281 160.132812 L 158.785156 161.671875 L 161.421875 160.554688 L 160.695312 163.304688 L 162.574219 165.449219 L 159.726562 165.632812 L 158.242188 168.082031 L 157.179688 165.421875 L 154.394531 164.785156 L 156.605469 162.972656 Z M 156.363281 160.132812 " fill-opacity="1" fill-rule="nonzero"/><path fill="#ffffff" d="M 166.660156 153.875 L 169.054688 155.414062 L 171.691406 154.296875 L 170.992188 157.078125 L 172.871094 159.222656 L 170.023438 159.40625 L 168.539062 161.855469 L 167.480469 159.195312 L 164.691406 158.558594 L 166.902344 156.714844 Z M 166.660156 153.875 " fill-opacity="1" fill-rule="nonzero"/><path fill="#ffffff" d="M 176.71875 147.769531 L 179.109375 149.308594 L 181.746094 148.191406 L 181.046875 150.972656 L 182.925781 153.117188 L 180.078125 153.300781 L 178.59375 155.75 L 177.535156 153.089844 L 174.75 152.453125 L 176.960938 150.640625 Z M 176.71875 147.769531 " fill-opacity="1" fill-rule="nonzero"/><path fill="#ffffff" d="M 186.984375 141.542969 L 189.40625 143.085938 L 192.042969 141.964844 L 191.347656 144.714844 L 193.222656 146.863281 L 190.347656 147.042969 L 188.894531 149.492188 L 187.832031 146.832031 L 185.046875 146.199219 L 187.257812 144.382812 Z M 186.984375 141.542969 " fill-opacity="1" fill-rule="nonzero"/><path fill="#ffffff" d="M 183.53125 179.203125 L 185.957031 180.746094 L 188.589844 179.625 L 187.863281 182.40625 L 189.742188 184.550781 L 186.894531 184.734375 L 185.441406 187.183594 L 184.378906 184.523438 L 181.59375 183.886719 L 183.804688 182.042969 Z M 183.53125 179.203125 " fill-opacity="1" fill-rule="nonzero"/><path fill="#ffffff" d="M 193.589844 173.128906 L 196.011719 174.640625 L 198.644531 173.519531 L 197.917969 176.300781 L 199.796875 178.445312 L 196.949219 178.628906 L 195.496094 181.078125 L 194.4375 178.417969 L 191.648438 177.78125 L 193.859375 175.96875 Z M 193.589844 173.128906 " fill-opacity="1" fill-rule="nonzero"/><path fill="#ffffff" d="M 203.886719 166.871094 L 206.308594 168.414062 L 208.945312 167.292969 L 208.21875 170.042969 L 210.09375 172.191406 L 207.246094 172.371094 L 205.765625 174.820312 L 204.734375 172.160156 L 201.949219 171.527344 L 204.128906 169.710938 Z M 203.886719 166.871094 " fill-opacity="1" fill-rule="nonzero"/><g clip-path="url(#84a6fc4279)"><path fill="#55afdf" d="M 241.835938 174.277344 L 151.15625 190.144531 L 151.214844 190.445312 C 152.367188 197.066406 148.125 203.324219 141.703125 204.472656 L 141.402344 204.53125 L 147.945312 241.679688 L 148.246094 241.617188 C 154.667969 240.5 160.816406 244.941406 161.96875 251.5625 L 162.027344 251.863281 L 252.710938 235.996094 L 252.648438 235.691406 C 251.5 229.074219 255.738281 222.816406 262.160156 221.667969 L 262.464844 221.609375 L 255.921875 184.460938 L 255.617188 184.523438 C 249.195312 185.640625 243.046875 181.199219 241.898438 174.578125 Z M 241.835938 174.277344 " fill-opacity="1" fill-rule="nonzero"/></g><path fill="#ffffff" d="M 164.8125 248.265625 L 164.753906 247.84375 C 163.875 242.765625 159.453125 239.109375 154.273438 239.109375 C 153.636719 239.109375 153.03125 239.167969 152.394531 239.261719 L 151.972656 239.320312 L 146.15625 206.222656 L 146.582031 206.132812 C 152.367188 205.105469 156.273438 199.605469 155.242188 193.863281 L 155.183594 193.4375 L 155.335938 193.410156 L 238.71875 178.808594 L 238.777344 179.234375 C 239.65625 184.3125 244.078125 187.96875 249.257812 187.96875 C 249.894531 187.96875 250.5 187.90625 251.136719 187.816406 L 251.558594 187.757812 L 251.589844 187.90625 L 257.375 220.851562 L 256.949219 220.914062 C 254.132812 221.398438 251.679688 222.9375 250.042969 225.265625 C 248.410156 227.59375 247.773438 230.402344 248.257812 233.183594 L 248.320312 233.609375 L 248.167969 233.636719 Z M 154.273438 238.777344 C 159.605469 238.777344 164.117188 242.554688 165.054688 247.785156 L 165.085938 247.902344 L 248.046875 233.394531 L 248.015625 233.273438 C 247.5 230.402344 248.167969 227.53125 249.863281 225.144531 C 251.558594 222.757812 254.074219 221.183594 256.949219 220.671875 L 257.070312 220.640625 L 251.347656 188.148438 L 251.226562 188.179688 C 250.589844 188.300781 249.953125 188.359375 249.316406 188.359375 C 243.988281 188.359375 239.472656 184.582031 238.535156 179.355469 L 238.503906 179.234375 L 155.546875 193.742188 L 155.578125 193.863281 C 156.605469 199.785156 152.609375 205.4375 146.640625 206.464844 L 146.519531 206.496094 L 152.246094 238.988281 L 152.367188 238.957031 C 152.972656 238.835938 153.636719 238.777344 154.273438 238.777344 Z M 154.273438 238.777344 " fill-opacity="1" fill-rule="nonzero"/><path fill="#ffffff" d="M 164.632812 219.339844 L 164.632812 219.3125 C 163.996094 215.714844 166.207031 212.269531 170.113281 211.605469 C 172.507812 211.179688 174.082031 211.726562 175.476562 212.691406 L 174.050781 215.050781 C 172.929688 214.324219 171.8125 213.960938 170.570312 214.203125 C 168.417969 214.566406 167.207031 216.621094 167.570312 218.796875 L 167.570312 218.828125 C 167.964844 221.003906 169.78125 222.546875 171.960938 222.152344 C 173.417969 221.910156 174.203125 221.15625 175.050781 220.097656 L 177.140625 221.578125 C 176.082031 223.210938 174.777344 224.328125 172.324219 224.75 C 168.539062 225.355469 165.269531 222.96875 164.632812 219.339844 Z M 164.632812 219.339844 " fill-opacity="1" fill-rule="nonzero"/><path fill="#ffffff" d="M 177.597656 210.484375 L 180.382812 210.003906 L 182.625 222.667969 L 179.835938 223.148438 Z M 177.597656 210.484375 " fill-opacity="1" fill-rule="nonzero"/><path fill="#ffffff" d="M 183.5625 209.457031 L 186.136719 209.003906 L 193.464844 215.773438 L 192.105469 207.976562 L 194.859375 207.492188 L 197.101562 220.15625 L 194.738281 220.582031 L 187.167969 213.597656 L 188.589844 221.640625 L 185.835938 222.121094 Z M 183.5625 209.457031 " fill-opacity="1" fill-rule="nonzero"/><path fill="#ffffff" d="M 197.890625 206.949219 L 207.460938 205.285156 L 207.882812 207.765625 L 201.070312 208.945312 L 201.523438 211.511719 L 207.519531 210.457031 L 207.945312 212.933594 L 201.949219 213.992188 L 202.402344 216.652344 L 209.308594 215.441406 L 209.730469 217.921875 L 200.070312 219.613281 Z M 197.890625 206.949219 " fill-opacity="1" fill-rule="nonzero"/><path fill="#ffffff" d="M 210.035156 204.804688 L 213.03125 204.289062 L 217.304688 209.066406 L 219.695312 203.109375 L 222.695312 202.597656 L 224.9375 215.261719 L 222.148438 215.746094 L 220.695312 207.464844 L 218.0625 213.507812 L 218 213.507812 L 213.546875 208.792969 L 215 217.015625 L 212.277344 217.496094 Z M 210.035156 204.804688 " fill-opacity="1" fill-rule="nonzero"/><path fill="#ffffff" d="M 230.117188 201.207031 L 232.691406 200.753906 L 240.382812 212.570312 L 237.476562 213.085938 L 235.808594 210.457031 L 230.449219 211.390625 L 229.78125 214.445312 L 226.933594 214.929688 Z M 234.355469 208.160156 L 231.933594 204.351562 L 230.964844 208.761719 Z M 234.355469 208.160156 " fill-opacity="1" fill-rule="nonzero"/><path fill="#ffffff" d="M 154.183594 209.15625 L 153.910156 208.582031 L 154.363281 208.371094 L 154.820312 209.246094 L 154.878906 209.667969 L 151.425781 210.273438 L 151.335938 209.667969 Z M 154.183594 209.15625 " fill-opacity="1" fill-rule="nonzero"/><path fill="#ffffff" d="M 152.214844 211.875 L 153.425781 212.875 C 153.910156 213.265625 154.152344 213.417969 154.457031 213.355469 C 154.789062 213.296875 154.941406 213.023438 154.878906 212.722656 C 154.820312 212.421875 154.605469 212.207031 154.214844 212.027344 L 154.484375 211.542969 C 155 211.785156 155.335938 212.058594 155.425781 212.691406 C 155.546875 213.355469 155.214844 213.902344 154.605469 213.992188 C 154.0625 214.082031 153.730469 213.839844 153.121094 213.328125 L 152.394531 212.722656 L 152.667969 214.355469 L 152.152344 214.445312 L 151.730469 211.964844 Z M 152.214844 211.875 " fill-opacity="1" fill-rule="nonzero"/><path fill="#ffffff" d="M 153 215.804688 L 153.457031 216.167969 C 153.214844 216.46875 153.09375 216.773438 153.152344 217.136719 C 153.214844 217.46875 153.457031 217.679688 153.789062 217.648438 C 154.121094 217.589844 154.273438 217.257812 154.183594 216.773438 L 154.121094 216.5 L 154.484375 216.347656 L 155.636719 217.105469 L 155.363281 215.625 L 155.878906 215.535156 L 156.273438 217.800781 L 155.820312 217.890625 L 154.667969 217.105469 C 154.699219 217.648438 154.515625 218.164062 153.878906 218.285156 C 153.246094 218.40625 152.699219 217.980469 152.578125 217.285156 C 152.515625 216.621094 152.699219 216.167969 153 215.804688 Z M 153 215.804688 " fill-opacity="1" fill-rule="nonzero"/><path fill="#ffffff" d="M 154.242188 221.578125 L 153.941406 219.855469 L 154.363281 219.675781 L 156.96875 221.183594 L 157.058594 221.699219 L 154.878906 222.09375 L 154.96875 222.574219 L 154.484375 222.667969 L 154.394531 222.183594 L 153.636719 222.304688 L 153.546875 221.730469 Z M 154.726562 221.488281 L 156.089844 221.246094 L 154.546875 220.371094 Z M 154.726562 221.488281 " fill-opacity="1" fill-rule="nonzero"/><path fill="#ffffff" d="M 154.363281 224.148438 L 154.878906 224.449219 C 154.667969 224.78125 154.578125 225.085938 154.636719 225.417969 C 154.699219 225.839844 155 226.050781 155.363281 225.992188 C 155.726562 225.929688 155.878906 225.597656 155.820312 225.175781 C 155.789062 224.933594 155.667969 224.722656 155.546875 224.570312 L 155.726562 224.175781 L 157.425781 223.964844 L 157.789062 226.019531 L 157.242188 226.113281 L 156.96875 224.570312 L 156.152344 224.660156 C 156.242188 224.8125 156.304688 224.964844 156.332031 225.175781 C 156.453125 225.839844 156.183594 226.414062 155.457031 226.566406 C 154.757812 226.6875 154.214844 226.261719 154.0625 225.507812 C 153.972656 224.992188 154.121094 224.539062 154.363281 224.148438 Z M 154.363281 224.148438 " fill-opacity="1" fill-rule="nonzero"/><path fill="#ffffff" d="M 155 228.679688 C 155.214844 228.378906 155.546875 228.167969 156.242188 228.046875 C 157.304688 227.863281 158.210938 228.226562 158.363281 229.195312 C 158.453125 229.648438 158.363281 229.980469 158.152344 230.3125 L 157.636719 230.070312 C 157.789062 229.800781 157.847656 229.585938 157.816406 229.285156 C 157.726562 228.773438 157.210938 228.558594 156.574219 228.652344 C 156.789062 228.800781 157 229.011719 157.058594 229.40625 C 157.179688 230.070312 156.878906 230.675781 156.183594 230.796875 C 155.484375 230.917969 154.910156 230.433594 154.789062 229.738281 C 154.726562 229.253906 154.820312 228.953125 155 228.679688 Z M 156.0625 230.164062 C 156.425781 230.101562 156.605469 229.769531 156.546875 229.347656 C 156.484375 228.921875 156.152344 228.710938 155.820312 228.742188 C 155.457031 228.800781 155.242188 229.132812 155.335938 229.558594 C 155.394531 230.011719 155.726562 230.222656 156.0625 230.164062 Z M 156.0625 230.164062 " fill-opacity="1" fill-rule="nonzero"/><path fill="#ffffff" d="M 158.574219 233.667969 L 158.273438 231.945312 L 158.785156 231.855469 L 159.210938 234.273438 L 158.757812 234.363281 L 155.515625 233.335938 L 155.394531 232.671875 Z M 158.574219 233.667969 " fill-opacity="1" fill-rule="nonzero"/><path fill="#ffffff" d="M 250.195312 218.707031 L 250.46875 219.28125 L 250.015625 219.492188 L 249.558594 218.617188 L 249.5 218.191406 L 252.953125 217.589844 L 253.042969 218.191406 Z M 250.195312 218.707031 " fill-opacity="1" fill-rule="nonzero"/><path fill="#ffffff" d="M 252.164062 216.015625 L 250.953125 215.019531 C 250.46875 214.625 250.226562 214.476562 249.921875 214.535156 C 249.589844 214.597656 249.4375 214.867188 249.5 215.171875 C 249.558594 215.472656 249.773438 215.683594 250.167969 215.867188 L 249.894531 216.347656 C 249.378906 216.109375 249.046875 215.835938 248.953125 215.199219 C 248.832031 214.535156 249.167969 213.992188 249.773438 213.902344 C 250.316406 213.808594 250.652344 214.050781 251.257812 214.566406 L 251.984375 215.171875 L 251.710938 213.539062 L 252.226562 213.449219 L 252.648438 215.925781 Z M 252.164062 216.015625 " fill-opacity="1" fill-rule="nonzero"/><path fill="#ffffff" d="M 251.378906 212.058594 L 250.921875 211.695312 C 251.164062 211.390625 251.285156 211.089844 251.226562 210.726562 C 251.164062 210.394531 250.921875 210.183594 250.589844 210.214844 C 250.257812 210.273438 250.105469 210.605469 250.195312 211.089844 L 250.257812 211.363281 L 249.894531 211.511719 L 248.742188 210.757812 L 249.015625 212.238281 L 248.5 212.328125 L 248.105469 210.0625 L 248.5625 209.972656 L 249.710938 210.757812 C 249.679688 210.214844 249.863281 209.699219 250.5 209.578125 C 251.136719 209.457031 251.679688 209.882812 251.800781 210.578125 C 251.863281 211.242188 251.679688 211.726562 251.378906 212.058594 Z M 251.378906 212.058594 " fill-opacity="1" fill-rule="nonzero"/><path fill="#ffffff" d="M 250.136719 206.285156 L 250.4375 208.007812 L 250.015625 208.1875 L 247.410156 206.675781 L 247.320312 206.164062 L 249.5 205.769531 L 249.410156 205.285156 L 249.894531 205.195312 L 249.984375 205.679688 L 250.742188 205.558594 L 250.832031 206.132812 Z M 249.652344 206.375 L 248.289062 206.617188 L 249.832031 207.492188 Z M 249.652344 206.375 " fill-opacity="1" fill-rule="nonzero"/><path fill="#ffffff" d="M 250.015625 203.714844 L 249.5 203.414062 C 249.710938 203.082031 249.800781 202.777344 249.742188 202.445312 C 249.679688 202.023438 249.378906 201.8125 249.015625 201.871094 C 248.652344 201.933594 248.5 202.265625 248.5625 202.6875 C 248.589844 202.929688 248.710938 203.140625 248.832031 203.292969 L 248.683594 203.714844 L 246.984375 203.925781 L 246.621094 201.871094 L 247.167969 201.78125 L 247.441406 203.324219 L 248.257812 203.230469 C 248.167969 203.082031 248.105469 202.929688 248.074219 202.71875 C 247.953125 202.054688 248.226562 201.480469 248.953125 201.328125 C 249.652344 201.207031 250.195312 201.628906 250.347656 202.386719 C 250.410156 202.898438 250.257812 203.324219 250.015625 203.714844 Z M 250.015625 203.714844 " fill-opacity="1" fill-rule="nonzero"/><path fill="#ffffff" d="M 249.378906 199.179688 C 249.167969 199.484375 248.832031 199.695312 248.136719 199.816406 C 247.078125 199.996094 246.167969 199.636719 246.015625 198.667969 C 245.925781 198.214844 246.015625 197.882812 246.230469 197.550781 L 246.742188 197.792969 C 246.59375 198.0625 246.53125 198.273438 246.5625 198.578125 C 246.652344 199.089844 247.167969 199.300781 247.804688 199.210938 C 247.589844 199.0625 247.378906 198.847656 247.320312 198.457031 C 247.199219 197.792969 247.5 197.1875 248.199219 197.066406 C 248.894531 196.945312 249.46875 197.429688 249.589844 198.125 C 249.652344 198.605469 249.558594 198.941406 249.378906 199.179688 Z M 248.320312 197.699219 C 247.953125 197.761719 247.773438 198.09375 247.832031 198.515625 C 247.894531 198.941406 248.226562 199.152344 248.5625 199.121094 C 248.925781 199.0625 249.136719 198.726562 249.046875 198.304688 C 248.984375 197.851562 248.652344 197.640625 248.320312 197.699219 Z M 248.320312 197.699219 " fill-opacity="1" fill-rule="nonzero"/><path fill="#ffffff" d="M 245.804688 194.195312 L 246.109375 195.917969 L 245.5625 196.007812 L 245.136719 193.589844 L 245.59375 193.5 L 248.832031 194.527344 L 248.953125 195.191406 Z M 245.804688 194.195312 " fill-opacity="1" fill-rule="nonzero"/><path fill="#ffffff" d="M 169.085938 198.96875 L 170.75 201.265625 L 173.628906 201.207031 L 171.960938 203.503906 L 172.902344 206.195312 L 170.175781 205.316406 L 167.933594 207.070312 L 167.902344 204.230469 L 165.542969 202.597656 L 168.265625 201.71875 Z M 169.085938 198.96875 " fill-opacity="1" fill-rule="nonzero"/><path fill="#ffffff" d="M 180.925781 196.914062 L 182.625 199.210938 L 185.46875 199.121094 L 183.804688 201.449219 L 184.773438 204.136719 L 182.046875 203.261719 L 179.777344 204.984375 L 179.777344 202.144531 L 177.414062 200.542969 L 180.140625 199.636719 Z M 180.925781 196.914062 " fill-opacity="1" fill-rule="nonzero"/><path fill="#ffffff" d="M 192.226562 194.917969 L 193.921875 197.21875 L 196.769531 197.15625 L 195.101562 199.453125 L 196.070312 202.144531 L 193.34375 201.265625 L 191.074219 203.019531 L 191.074219 200.179688 L 188.710938 198.546875 L 191.4375 197.671875 Z M 192.226562 194.917969 " fill-opacity="1" fill-rule="nonzero"/><path fill="#ffffff" d="M 204.097656 192.835938 L 205.792969 195.160156 L 208.640625 195.070312 L 206.976562 197.367188 L 207.945312 200.058594 L 205.21875 199.210938 L 202.945312 200.933594 L 202.945312 198.09375 L 200.585938 196.492188 L 203.28125 195.585938 Z M 204.097656 192.835938 " fill-opacity="1" fill-rule="nonzero"/><path fill="#ffffff" d="M 215.667969 190.808594 L 217.363281 193.105469 L 220.242188 193.046875 L 218.546875 195.34375 L 219.515625 198.03125 L 216.789062 197.15625 L 214.546875 198.910156 L 214.515625 196.070312 L 212.15625 194.4375 L 214.878906 193.558594 Z M 215.667969 190.808594 " fill-opacity="1" fill-rule="nonzero"/><path fill="#ffffff" d="M 227.539062 188.753906 L 229.238281 191.050781 L 232.085938 190.960938 L 230.417969 193.289062 L 231.386719 195.976562 L 228.660156 195.101562 L 226.390625 196.824219 L 226.390625 193.984375 L 224.027344 192.382812 L 226.753906 191.472656 Z M 227.539062 188.753906 " fill-opacity="1" fill-rule="nonzero"/><path fill="#ffffff" d="M 175.566406 228.710938 L 177.261719 231.007812 L 180.109375 230.917969 L 178.445312 233.246094 L 179.414062 235.933594 L 176.6875 235.058594 L 174.414062 236.8125 L 174.414062 233.941406 L 172.054688 232.339844 L 174.75 231.429688 Z M 175.566406 228.710938 " fill-opacity="1" fill-rule="nonzero"/><path fill="#ffffff" d="M 187.410156 226.625 L 189.105469 228.921875 L 191.984375 228.863281 L 190.285156 231.160156 L 191.253906 233.847656 L 188.53125 232.972656 L 186.289062 234.726562 L 186.257812 231.886719 L 183.894531 230.253906 L 186.621094 229.375 Z M 187.410156 226.625 " fill-opacity="1" fill-rule="nonzero"/><path fill="#ffffff" d="M 198.707031 224.660156 L 200.402344 226.957031 L 203.28125 226.867188 L 201.582031 229.195312 L 202.554688 231.886719 L 199.828125 231.007812 L 197.585938 232.761719 L 197.554688 229.890625 L 195.191406 228.289062 L 197.917969 227.382812 Z M 198.707031 224.660156 " fill-opacity="1" fill-rule="nonzero"/><path fill="#ffffff" d="M 210.578125 222.574219 L 212.277344 224.871094 L 215.121094 224.78125 L 213.457031 227.109375 L 214.425781 229.800781 L 211.699219 228.921875 L 209.429688 230.675781 L 209.429688 227.804688 L 207.066406 226.203125 L 209.792969 225.324219 Z M 210.578125 222.574219 " fill-opacity="1" fill-rule="nonzero"/><path fill="#ffffff" d="M 222.179688 220.550781 L 223.875 222.847656 L 226.722656 222.757812 L 225.058594 225.085938 L 226.027344 227.773438 L 223.300781 226.898438 L 221.027344 228.652344 L 221.027344 225.78125 L 218.667969 224.175781 L 221.363281 223.269531 Z M 222.179688 220.550781 " fill-opacity="1" fill-rule="nonzero"/><path fill="#ffffff" d="M 234.023438 218.464844 L 235.71875 220.761719 L 238.597656 220.703125 L 236.898438 223 L 237.867188 225.6875 L 235.144531 224.8125 L 232.902344 226.566406 L 232.871094 223.722656 L 230.507812 222.09375 L 233.234375 221.214844 Z M 234.023438 218.464844 " fill-opacity="1" fill-rule="nonzero"/></svg>